<svg width="170" height="40" viewBox="0 0 170 40" fill="none" xmlns="http://www.w3.org/2000/svg">
<g clip-path="url(#clip0_201_275)">
<path fill-rule="evenodd" clip-rule="evenodd" d="M19.9999 39.9999C31.0457 39.9999 39.9999 31.0456 39.9999 19.9999C39.9999 8.9543 31.0457 0 19.9999 0C8.95429 0 0 8.9543 0 19.9999C0 31.0456 8.95429 39.9999 19.9999 39.9999ZM23.0869 15.4525C24.7917 13.7476 24.7917 10.9835 23.0869 9.27865C21.382 7.57377 18.6179 7.57377 16.913 9.27865C15.2082 10.9835 15.2082 13.7476 16.913 15.4525L19.9999 18.5394L23.0869 15.4525ZM24.5474 23.0869C26.2523 24.7918 29.0164 24.7918 30.7213 23.0869C32.4261 21.382 32.4261 18.6179 30.7213 16.913C29.0164 15.2082 26.2523 15.2082 24.5474 16.913L21.4605 20L24.5474 23.0869ZM23.0869 30.7213C24.7917 29.0164 24.7917 26.2523 23.0869 24.5474L19.9999 21.4605L16.913 24.5474C15.2082 26.2523 15.2082 29.0164 16.913 30.7213C18.6179 32.4262 21.382 32.4262 23.0869 30.7213ZM9.27863 23.0869C7.57379 21.382 7.57379 18.6179 9.27863 16.913C10.9835 15.2082 13.7476 15.2082 15.4525 16.913L18.5394 20L15.4525 23.0869C13.7476 24.7918 10.9835 24.7918 9.27863 23.0869Z" fill="#B9FB6A"/>
<rect width="40" height="40" rx="20" fill="black"/>
<path d="M25.5078 26.4222C25.5078 24.9721 26.6894 23.8442 28.0858 23.8442C29.5359 23.8442 30.6638 25.0258 30.6638 26.4222C30.6638 27.8186 29.4822 29.0002 28.0858 29.0002C26.6894 29.0002 25.5078 27.8724 25.5078 26.4222Z" fill="#86BC25"/>
<path d="M24.761 19.4937C24.761 22.5014 24.009 24.7571 22.3978 26.3683C20.7866 27.9796 18.5308 28.7852 15.6306 28.7852H9.9375V10.9004H15.9528C18.7993 10.9004 20.9477 11.5986 22.4515 13.1024C24.009 14.5525 24.761 16.7009 24.761 19.4937ZM19.8198 19.6548C19.8198 17.9899 19.4976 16.8083 18.8531 16.0027C18.2623 15.2508 17.2418 14.8211 15.9528 14.8211H14.6638V24.8108H15.738C17.1881 24.8108 18.2086 24.3811 18.9068 23.5218C19.4976 22.6625 19.8198 21.3735 19.8198 19.6548Z" fill="white"/>
<path d="M58.582 29H54.0586V25.9414H58.3945C59.5508 25.9414 60.5078 25.7305 61.2656 25.3086C62.0312 24.8867 62.6016 24.2539 62.9766 23.4102C63.3594 22.5664 63.5508 21.5156 63.5508 20.2578C63.5508 19 63.3594 17.9531 62.9766 17.1172C62.6016 16.2734 62.0352 15.6445 61.2773 15.2305C60.5195 14.8086 59.5703 14.5977 58.4297 14.5977H53.9766V11.5391H58.6406C60.3984 11.5391 61.9102 11.8906 63.1758 12.5938C64.4492 13.2969 65.4297 14.3008 66.1172 15.6055C66.8047 16.9102 67.1484 18.4609 67.1484 20.2578C67.1484 22.0625 66.8047 23.6172 66.1172 24.9219C65.4297 26.2266 64.4453 27.2344 63.1641 27.9453C61.8906 28.6484 60.3633 29 58.582 29ZM56.0156 11.5391V29H52.4297V11.5391H56.0156ZM75.1758 29.2695C73.8867 29.2695 72.7695 28.9961 71.8242 28.4492C70.8789 27.8945 70.1484 27.125 69.6328 26.1406C69.1172 25.1484 68.8594 23.9961 68.8594 22.6836C68.8594 21.3867 69.1172 20.2422 69.6328 19.25C70.1562 18.2578 70.8789 17.4805 71.8008 16.918C72.7305 16.3555 73.8086 16.0742 75.0352 16.0742C75.918 16.0742 76.7305 16.2227 77.4727 16.5195C78.2227 16.8086 78.8711 17.2344 79.418 17.7969C79.9648 18.3594 80.3906 19.043 80.6953 19.8477C81 20.6523 81.1523 21.5664 81.1523 22.5898V23.5391H70.1836V21.3359H79.4648L77.8711 21.8867C77.8711 21.2383 77.7617 20.6758 77.543 20.1992C77.3242 19.7227 77.0078 19.3555 76.5938 19.0977C76.1797 18.8398 75.6758 18.7109 75.082 18.7109C74.4961 18.7109 73.9922 18.8438 73.5703 19.1094C73.1562 19.3672 72.8359 19.7305 72.6094 20.1992C72.3828 20.6602 72.2695 21.1992 72.2695 21.8164V23.3516C72.2695 24.0391 72.3906 24.6328 72.6328 25.1328C72.875 25.625 73.2188 26.0039 73.6641 26.2695C74.1172 26.5273 74.6484 26.6562 75.2578 26.6562C75.6953 26.6562 76.0859 26.5938 76.4297 26.4688C76.7734 26.3438 77.0625 26.1641 77.2969 25.9297C77.5391 25.6953 77.7148 25.418 77.8242 25.0977L80.9883 25.3555C80.8086 26.1289 80.4492 26.8125 79.9102 27.4062C79.3789 27.9922 78.707 28.4492 77.8945 28.7773C77.0898 29.1055 76.1836 29.2695 75.1758 29.2695ZM86.7422 11.5391V29H83.2617V11.5391H86.7422ZM95.2148 29.2695C93.9414 29.2695 92.8281 28.9961 91.875 28.4492C90.9219 27.8945 90.1836 27.125 89.6602 26.1406C89.1367 25.1484 88.875 23.9961 88.875 22.6836C88.875 21.3633 89.1367 20.207 89.6602 19.2148C90.1836 18.2227 90.9219 17.4531 91.875 16.9062C92.8281 16.3516 93.9414 16.0742 95.2148 16.0742C96.5039 16.0742 97.6211 16.3516 98.5664 16.9062C99.5117 17.4531 100.246 18.2227 100.77 19.2148C101.293 20.207 101.555 21.3633 101.555 22.6836C101.555 23.9961 101.293 25.1484 100.77 26.1406C100.246 27.125 99.5117 27.8945 98.5664 28.4492C97.6211 28.9961 96.5039 29.2695 95.2148 29.2695ZM95.2148 26.4805C95.8086 26.4805 96.3125 26.3242 96.7266 26.0117C97.1484 25.6914 97.4727 25.2461 97.6992 24.6758C97.9258 24.1055 98.0391 23.4375 98.0391 22.6719C98.0391 21.9062 97.9258 21.2383 97.6992 20.668C97.4727 20.0977 97.1484 19.6562 96.7266 19.3438C96.3125 19.0234 95.8086 18.8633 95.2148 18.8633C94.6289 18.8633 94.125 19.0234 93.7031 19.3438C93.2812 19.6562 92.957 20.0977 92.7305 20.668C92.5117 21.2305 92.4023 21.8984 92.4023 22.6719C92.4023 23.4375 92.5117 24.1055 92.7305 24.6758C92.957 25.2461 93.2812 25.6914 93.7031 26.0117C94.125 26.3242 94.6289 26.4805 95.2148 26.4805ZM103.723 29V16.2969H107.203V29H103.723ZM105.457 14.6797C104.902 14.6797 104.438 14.5039 104.062 14.1523C103.688 13.8008 103.5 13.3672 103.5 12.8516C103.5 12.3359 103.688 11.9062 104.062 11.5625C104.438 11.2109 104.898 11.0352 105.445 11.0352C106 11.0352 106.465 11.2109 106.84 11.5625C107.215 11.9062 107.402 12.3359 107.402 12.8516C107.402 13.3672 107.215 13.8008 106.84 14.1523C106.465 14.5039 106.004 14.6797 105.457 14.6797ZM116.824 16.2969V19.0039H108.855V16.2969H116.824ZM110.848 13.0391H114.316V25.168C114.316 25.5898 114.406 25.8906 114.586 26.0703C114.766 26.2422 115.078 26.3281 115.523 26.3281C115.695 26.3281 115.906 26.3203 116.156 26.3047C116.414 26.2891 116.613 26.2773 116.754 26.2695L116.977 28.9414C116.688 28.9961 116.352 29.0312 115.969 29.0469C115.594 29.0703 115.223 29.082 114.855 29.082C113.512 29.082 112.508 28.793 111.844 28.2148C111.18 27.6367 110.848 26.7695 110.848 25.6133V13.0391ZM125.004 16.2969V19.0039H117.035V16.2969H125.004ZM119.027 13.0391H122.496V25.168C122.496 25.5898 122.586 25.8906 122.766 26.0703C122.945 26.2422 123.258 26.3281 123.703 26.3281C123.875 26.3281 124.086 26.3203 124.336 26.3047C124.594 26.2891 124.793 26.2773 124.934 26.2695L125.156 28.9414C124.867 28.9961 124.531 29.0312 124.148 29.0469C123.773 29.0703 123.402 29.082 123.035 29.082C121.691 29.082 120.688 28.793 120.023 28.2148C119.359 27.6367 119.027 26.7695 119.027 25.6133V13.0391ZM132.574 29.2695C131.285 29.2695 130.168 28.9961 129.223 28.4492C128.277 27.8945 127.547 27.125 127.031 26.1406C126.516 25.1484 126.258 23.9961 126.258 22.6836C126.258 21.3867 126.516 20.2422 127.031 19.25C127.555 18.2578 128.277 17.4805 129.199 16.918C130.129 16.3555 131.207 16.0742 132.434 16.0742C133.316 16.0742 134.129 16.2227 134.871 16.5195C135.621 16.8086 136.27 17.2344 136.816 17.7969C137.363 18.3594 137.789 19.043 138.094 19.8477C138.398 20.6523 138.551 21.5664 138.551 22.5898V23.5391H127.582V21.3359H136.863L135.27 21.8867C135.27 21.2383 135.16 20.6758 134.941 20.1992C134.723 19.7227 134.406 19.3555 133.992 19.0977C133.578 18.8398 133.074 18.7109 132.48 18.7109C131.895 18.7109 131.391 18.8438 130.969 19.1094C130.555 19.3672 130.234 19.7305 130.008 20.1992C129.781 20.6602 129.668 21.1992 129.668 21.8164V23.3516C129.668 24.0391 129.789 24.6328 130.031 25.1328C130.273 25.625 130.617 26.0039 131.062 26.2695C131.516 26.5273 132.047 26.6562 132.656 26.6562C133.094 26.6562 133.484 26.5938 133.828 26.4688C134.172 26.3438 134.461 26.1641 134.695 25.9297C134.938 25.6953 135.113 25.418 135.223 25.0977L138.387 25.3555C138.207 26.1289 137.848 26.8125 137.309 27.4062C136.777 27.9922 136.105 28.4492 135.293 28.7773C134.488 29.1055 133.582 29.2695 132.574 29.2695Z" fill="white"/>
</g>
<defs>
<clipPath id="clip0_201_275">
<rect width="170" height="40" fill="white"/>
</clipPath>
</defs>
</svg>
