<svg width="170" height="40" viewBox="0 0 170 40" fill="none" xmlns="http://www.w3.org/2000/svg">
<g clip-path="url(#clip0_199_262)">
<path fill-rule="evenodd" clip-rule="evenodd" d="M19.9999 39.9999C31.0457 39.9999 39.9999 31.0456 39.9999 19.9999C39.9999 8.9543 31.0457 0 19.9999 0C8.95429 0 0 8.9543 0 19.9999C0 31.0456 8.95429 39.9999 19.9999 39.9999ZM23.0869 15.4525C24.7917 13.7476 24.7917 10.9835 23.0869 9.27865C21.382 7.57377 18.6179 7.57377 16.913 9.27865C15.2082 10.9835 15.2082 13.7476 16.913 15.4525L19.9999 18.5394L23.0869 15.4525ZM24.5474 23.0869C26.2523 24.7918 29.0164 24.7918 30.7213 23.0869C32.4261 21.382 32.4261 18.6179 30.7213 16.913C29.0164 15.2082 26.2523 15.2082 24.5474 16.913L21.4605 20L24.5474 23.0869ZM23.0869 30.7213C24.7917 29.0164 24.7917 26.2523 23.0869 24.5474L19.9999 21.4605L16.913 24.5474C15.2082 26.2523 15.2082 29.0164 16.913 30.7213C18.6179 32.4262 21.382 32.4262 23.0869 30.7213ZM9.27863 23.0869C7.57379 21.382 7.57379 18.6179 9.27863 16.913C10.9835 15.2082 13.7476 15.2082 15.4525 16.913L18.5394 20L15.4525 23.0869C13.7476 24.7918 10.9835 24.7918 9.27863 23.0869Z" fill="#B9FB6A"/>
<rect width="40" height="40" rx="20" fill="#FAFAFA"/>
<g clip-path="url(#clip1_199_262)">
<path d="M25.4256 13.3551L23.5446 10.0258C23.1869 9.3928 22.5137 9 21.7827 9H14.197C11.3273 9.00381 9 11.311 9 14.1559V23.3999H14.7778V16.3106C14.7778 15.4411 15.4895 14.7356 16.3665 14.7356H23.7446C24.5101 14.7356 25.1295 15.3496 25.1295 16.1084V24.2351C25.1295 24.8949 24.5909 25.4325 23.9216 25.4325H15.8511V30.9889H21.8867C22.6137 30.9889 23.283 30.6037 23.6408 29.9783L25.3834 26.9389C25.7527 26.2944 26.4412 25.8978 27.1875 25.8978H29.3455C30.2034 25.8978 30.9034 25.2076 30.9034 24.3533V15.544C30.9034 14.747 30.2495 14.0987 29.4455 14.0987H26.6912C26.1643 14.0987 25.6757 13.8165 25.418 13.3589L25.4256 13.3551Z" fill="black"/>
</g>
<path d="M52.4297 29V11.5391H59.2734C60.5938 11.5391 61.7266 11.7812 62.6719 12.2656C63.6172 12.75 64.3398 13.4258 64.8398 14.293C65.3477 15.1602 65.6016 16.1758 65.6016 17.3398C65.6016 18.5039 65.3438 19.5195 64.8281 20.3867C64.3203 21.2539 63.5898 21.9297 62.6367 22.4141C61.6836 22.8906 60.543 23.1289 59.2148 23.1289H54.5859V20.1641H58.8633C59.543 20.1641 60.1133 20.0469 60.5742 19.8125C61.043 19.5781 61.3984 19.25 61.6406 18.8281C61.8828 18.3984 62.0039 17.9023 62.0039 17.3398C62.0039 16.7695 61.8828 16.2773 61.6406 15.8633C61.3984 15.4414 61.043 15.1133 60.5742 14.8789C60.1133 14.6445 59.5391 14.5273 58.8516 14.5273H56.0156V29H52.4297ZM72.9961 29.2695C71.707 29.2695 70.5898 28.9961 69.6445 28.4492C68.6992 27.8945 67.9688 27.125 67.4531 26.1406C66.9375 25.1484 66.6797 23.9961 66.6797 22.6836C66.6797 21.3867 66.9375 20.2422 67.4531 19.25C67.9766 18.2578 68.6992 17.4805 69.6211 16.918C70.5508 16.3555 71.6289 16.0742 72.8555 16.0742C73.7383 16.0742 74.5508 16.2227 75.293 16.5195C76.043 16.8086 76.6914 17.2344 77.2383 17.7969C77.7852 18.3594 78.2109 19.043 78.5156 19.8477C78.8203 20.6523 78.9727 21.5664 78.9727 22.5898V23.5391H68.0039V21.3359H77.2852L75.6914 21.8867C75.6914 21.2383 75.582 20.6758 75.3633 20.1992C75.1445 19.7227 74.8281 19.3555 74.4141 19.0977C74 18.8398 73.4961 18.7109 72.9023 18.7109C72.3164 18.7109 71.8125 18.8438 71.3906 19.1094C70.9766 19.3672 70.6562 19.7305 70.4297 20.1992C70.2031 20.6602 70.0898 21.1992 70.0898 21.8164V23.3516C70.0898 24.0391 70.2109 24.6328 70.4531 25.1328C70.6953 25.625 71.0391 26.0039 71.4844 26.2695C71.9375 26.5273 72.4688 26.6562 73.0781 26.6562C73.5156 26.6562 73.9062 26.5938 74.25 26.4688C74.5938 26.3438 74.8828 26.1641 75.1172 25.9297C75.3594 25.6953 75.5352 25.418 75.6445 25.0977L78.8086 25.3555C78.6289 26.1289 78.2695 26.8125 77.7305 27.4062C77.1992 27.9922 76.5273 28.4492 75.7148 28.7773C74.9102 29.1055 74.0039 29.2695 72.9961 29.2695ZM81.082 29V16.2969H84.4453V18.4883H84.5273C84.7539 17.7148 85.1289 17.1367 85.6523 16.7539C86.1758 16.3711 86.8242 16.1797 87.5977 16.1797C87.793 16.1797 87.9844 16.1875 88.1719 16.2031C88.3594 16.2109 88.5273 16.2266 88.6758 16.25V19.2734C88.5352 19.2422 88.3203 19.2148 88.0312 19.1914C87.7422 19.168 87.457 19.1562 87.1758 19.1562C86.6758 19.1562 86.2266 19.2695 85.8281 19.4961C85.4297 19.7148 85.1172 20.0352 84.8906 20.457C84.6719 20.8711 84.5625 21.3711 84.5625 21.957V29H81.082ZM95.5781 29.2812C94.5156 29.2812 93.5703 29.125 92.7422 28.8125C91.9141 28.4922 91.2461 28.0312 90.7383 27.4297C90.2383 26.8281 89.9336 26.1016 89.8242 25.25L93.1641 25.0039C93.2734 25.5664 93.5312 26 93.9375 26.3047C94.3438 26.6094 94.8945 26.7617 95.5898 26.7617C96.2461 26.7617 96.7617 26.6406 97.1367 26.3984C97.5117 26.1484 97.6992 25.8281 97.6992 25.4375C97.6992 25.1016 97.5586 24.832 97.2773 24.6289C97.0039 24.418 96.5977 24.2578 96.0586 24.1484L93.8438 23.7148C92.6172 23.4648 91.6914 23.0352 91.0664 22.4258C90.4414 21.8086 90.1289 21.0195 90.1289 20.0586C90.1289 19.2461 90.3477 18.543 90.7852 17.9492C91.2305 17.3555 91.8516 16.8984 92.6484 16.5781C93.4531 16.25 94.3984 16.0859 95.4844 16.0859C96.5391 16.0859 97.457 16.2461 98.2383 16.5664C99.0195 16.8789 99.6367 17.3242 100.09 17.9023C100.551 18.4805 100.824 19.168 100.91 19.9648L97.7461 20.2109C97.6836 19.7344 97.4609 19.3438 97.0781 19.0391C96.6953 18.7266 96.1914 18.5703 95.5664 18.5703C94.9805 18.5703 94.5039 18.6953 94.1367 18.9453C93.7773 19.1875 93.5977 19.5 93.5977 19.8828C93.5977 20.2109 93.7266 20.4844 93.9844 20.7031C94.25 20.9141 94.6523 21.0742 95.1914 21.1836L97.5352 21.6406C98.793 21.8984 99.7227 22.3086 100.324 22.8711C100.934 23.4336 101.238 24.1758 101.238 25.0977C101.238 25.9414 100.996 26.6758 100.512 27.3008C100.027 27.9258 99.3594 28.4141 98.5078 28.7656C97.6641 29.1094 96.6875 29.2812 95.5781 29.2812ZM109.113 29.2695C107.84 29.2695 106.727 28.9961 105.773 28.4492C104.82 27.8945 104.082 27.125 103.559 26.1406C103.035 25.1484 102.773 23.9961 102.773 22.6836C102.773 21.3633 103.035 20.207 103.559 19.2148C104.082 18.2227 104.82 17.4531 105.773 16.9062C106.727 16.3516 107.84 16.0742 109.113 16.0742C110.402 16.0742 111.52 16.3516 112.465 16.9062C113.41 17.4531 114.145 18.2227 114.668 19.2148C115.191 20.207 115.453 21.3633 115.453 22.6836C115.453 23.9961 115.191 25.1484 114.668 26.1406C114.145 27.125 113.41 27.8945 112.465 28.4492C111.52 28.9961 110.402 29.2695 109.113 29.2695ZM109.113 26.4805C109.707 26.4805 110.211 26.3242 110.625 26.0117C111.047 25.6914 111.371 25.2461 111.598 24.6758C111.824 24.1055 111.938 23.4375 111.938 22.6719C111.938 21.9062 111.824 21.2383 111.598 20.668C111.371 20.0977 111.047 19.6562 110.625 19.3438C110.211 19.0234 109.707 18.8633 109.113 18.8633C108.527 18.8633 108.023 19.0234 107.602 19.3438C107.18 19.6562 106.855 20.0977 106.629 20.668C106.41 21.2305 106.301 21.8984 106.301 22.6719C106.301 23.4375 106.41 24.1055 106.629 24.6758C106.855 25.2461 107.18 25.6914 107.602 26.0117C108.023 26.3242 108.527 26.4805 109.113 26.4805ZM121.102 21.8047V29H117.621V16.2969H120.984L121.008 19.543H120.586C120.953 18.4492 121.492 17.6016 122.203 17C122.922 16.3906 123.84 16.0859 124.957 16.0859C125.848 16.0859 126.625 16.2812 127.289 16.6719C127.953 17.0547 128.465 17.6133 128.824 18.3477C129.191 19.0742 129.375 19.957 129.375 20.9961V29H125.895V21.6172C125.895 20.7969 125.691 20.1641 125.285 19.7188C124.879 19.2734 124.309 19.0508 123.574 19.0508C123.09 19.0508 122.66 19.1523 122.285 19.3555C121.918 19.5586 121.629 19.8672 121.418 20.2812C121.207 20.6875 121.102 21.1953 121.102 21.8047ZM132.082 29V16.2969H135.562V29H132.082ZM133.816 14.6797C133.262 14.6797 132.797 14.5039 132.422 14.1523C132.047 13.8008 131.859 13.3672 131.859 12.8516C131.859 12.3359 132.047 11.9062 132.422 11.5625C132.797 11.2109 133.258 11.0352 133.805 11.0352C134.359 11.0352 134.824 11.2109 135.199 11.5625C135.574 11.9062 135.762 12.3359 135.762 12.8516C135.762 13.3672 135.574 13.8008 135.199 14.1523C134.824 14.5039 134.363 14.6797 133.816 14.6797ZM144.035 29.2695C142.762 29.2695 141.648 28.9961 140.695 28.4492C139.742 27.8945 139.004 27.125 138.48 26.1406C137.957 25.1484 137.695 23.9961 137.695 22.6836C137.695 21.3633 137.957 20.207 138.48 19.2148C139.004 18.2227 139.742 17.4531 140.695 16.9062C141.648 16.3516 142.762 16.0742 144.035 16.0742C145.324 16.0742 146.441 16.3516 147.387 16.9062C148.332 17.4531 149.066 18.2227 149.59 19.2148C150.113 20.207 150.375 21.3633 150.375 22.6836C150.375 23.9961 150.113 25.1484 149.59 26.1406C149.066 27.125 148.332 27.8945 147.387 28.4492C146.441 28.9961 145.324 29.2695 144.035 29.2695ZM144.035 26.4805C144.629 26.4805 145.133 26.3242 145.547 26.0117C145.969 25.6914 146.293 25.2461 146.52 24.6758C146.746 24.1055 146.859 23.4375 146.859 22.6719C146.859 21.9062 146.746 21.2383 146.52 20.668C146.293 20.0977 145.969 19.6562 145.547 19.3438C145.133 19.0234 144.629 18.8633 144.035 18.8633C143.449 18.8633 142.945 19.0234 142.523 19.3438C142.102 19.6562 141.777 20.0977 141.551 20.668C141.332 21.2305 141.223 21.8984 141.223 22.6719C141.223 23.4375 141.332 24.1055 141.551 24.6758C141.777 25.2461 142.102 25.6914 142.523 26.0117C142.945 26.3242 143.449 26.4805 144.035 26.4805Z" fill="white"/>
</g>
<defs>
<clipPath id="clip0_199_262">
<rect width="170" height="40" fill="white"/>
</clipPath>
<clipPath id="clip1_199_262">
<rect width="22" height="22" fill="white" transform="translate(9 9)"/>
</clipPath>
</defs>
</svg>
