<svg width="170" height="40" viewBox="0 0 170 40" fill="none" xmlns="http://www.w3.org/2000/svg">
<g clip-path="url(#clip0_198_233)">
<path fill-rule="evenodd" clip-rule="evenodd" d="M19.9999 39.9999C31.0457 39.9999 39.9999 31.0456 39.9999 19.9999C39.9999 8.9543 31.0457 0 19.9999 0C8.95429 0 0 8.9543 0 19.9999C0 31.0456 8.95429 39.9999 19.9999 39.9999ZM23.0869 15.4525C24.7917 13.7476 24.7917 10.9835 23.0869 9.27865C21.382 7.57377 18.6179 7.57377 16.913 9.27865C15.2082 10.9835 15.2082 13.7476 16.913 15.4525L19.9999 18.5394L23.0869 15.4525ZM24.5474 23.0869C26.2523 24.7918 29.0164 24.7918 30.7213 23.0869C32.4261 21.382 32.4261 18.6179 30.7213 16.913C29.0164 15.2082 26.2523 15.2082 24.5474 16.913L21.4605 20L24.5474 23.0869ZM23.0869 30.7213C24.7917 29.0164 24.7917 26.2523 23.0869 24.5474L19.9999 21.4605L16.913 24.5474C15.2082 26.2523 15.2082 29.0164 16.913 30.7213C18.6179 32.4262 21.382 32.4262 23.0869 30.7213ZM9.27863 23.0869C7.57379 21.382 7.57379 18.6179 9.27863 16.913C10.9835 15.2082 13.7476 15.2082 15.4525 16.913L18.5394 20L15.4525 23.0869C13.7476 24.7918 10.9835 24.7918 9.27863 23.0869Z" fill="#B9FB6A"/>
<rect width="40" height="40" rx="20" fill="#FF0033"/>
<g clip-path="url(#clip1_198_233)">
<path d="M9.95828 28.4557C8.85003 28.1557 7.98625 27.2731 7.66654 26.1845C7.14062 24.1763 7.14062 19.9903 7.14062 19.9903C7.14062 19.9903 7.14062 15.8049 7.66654 13.8155C7.9856 12.7081 8.85003 11.8443 9.95828 11.5443C11.9491 11 19.9884 11 19.9884 11C19.9884 11 28.0464 11 30.0373 11.5443C31.1643 11.8443 32.0093 12.7081 32.3102 13.8155C32.8549 15.8049 32.8549 19.9903 32.8549 19.9903C32.8549 19.9903 32.8549 24.1757 32.3102 26.1845C32.0093 27.2731 31.1643 28.155 30.0373 28.4557C28.0464 29 19.9884 29 19.9884 29C19.9884 29 11.9491 29 9.95828 28.4557ZM17.434 23.8575L24.1023 19.9909L17.434 16.1431V23.8575Z" fill="#FAFAFA"/>
<path d="M17.4375 23.8565L24.1058 19.9899L17.4375 16.1421V23.8565Z" fill="#FF0033"/>
</g>
<path d="M57.7852 29V22.4609L51.3164 11.5391H55.4766L58.4297 16.8711C58.7188 17.3789 58.9844 17.8867 59.2266 18.3945C59.4766 18.8945 59.7266 19.4453 59.9766 20.0469H59.1914C59.4258 19.4453 59.6641 18.8906 59.9062 18.3828C60.1484 17.875 60.4062 17.3711 60.6797 16.8711L63.5508 11.5391H67.6875L61.3125 22.4609V29H57.7852ZM72.3867 29.2695C71.1133 29.2695 70 28.9961 69.0469 28.4492C68.0938 27.8945 67.3555 27.125 66.832 26.1406C66.3086 25.1484 66.0469 23.9961 66.0469 22.6836C66.0469 21.3633 66.3086 20.207 66.832 19.2148C67.3555 18.2227 68.0938 17.4531 69.0469 16.9062C70 16.3516 71.1133 16.0742 72.3867 16.0742C73.6758 16.0742 74.793 16.3516 75.7383 16.9062C76.6836 17.4531 77.418 18.2227 77.9414 19.2148C78.4648 20.207 78.7266 21.3633 78.7266 22.6836C78.7266 23.9961 78.4648 25.1484 77.9414 26.1406C77.418 27.125 76.6836 27.8945 75.7383 28.4492C74.793 28.9961 73.6758 29.2695 72.3867 29.2695ZM72.3867 26.4805C72.9805 26.4805 73.4844 26.3242 73.8984 26.0117C74.3203 25.6914 74.6445 25.2461 74.8711 24.6758C75.0977 24.1055 75.2109 23.4375 75.2109 22.6719C75.2109 21.9062 75.0977 21.2383 74.8711 20.668C74.6445 20.0977 74.3203 19.6562 73.8984 19.3438C73.4844 19.0234 72.9805 18.8633 72.3867 18.8633C71.8008 18.8633 71.2969 19.0234 70.875 19.3438C70.4531 19.6562 70.1289 20.0977 69.9023 20.668C69.6836 21.2305 69.5742 21.8984 69.5742 22.6719C69.5742 23.4375 69.6836 24.1055 69.9023 24.6758C70.1289 25.2461 70.4531 25.6914 70.875 26.0117C71.2969 26.3242 71.8008 26.4805 72.3867 26.4805ZM85.3125 29.2227C84.4219 29.2227 83.6445 29.0312 82.9805 28.6484C82.3164 28.2578 81.8008 27.6953 81.4336 26.9609C81.0742 26.2266 80.8945 25.3438 80.8945 24.3125V16.2969H84.375V23.6914C84.375 24.5117 84.5781 25.1445 84.9844 25.5898C85.3906 26.0352 85.9609 26.2578 86.6953 26.2578C87.1797 26.2578 87.6055 26.1562 87.9727 25.9531C88.3477 25.7422 88.6406 25.4336 88.8516 25.0273C89.0625 24.6133 89.168 24.1016 89.168 23.4922V16.2969H92.6484V29H89.2852L89.2617 25.7539H89.6836C89.3086 26.8555 88.7617 27.7109 88.043 28.3203C87.332 28.9219 86.4219 29.2227 85.3125 29.2227ZM93.4688 14.5742V11.5391H107.695V14.5742H102.387V29H98.7891V14.5742H93.4688ZM111.984 29.2227C111.094 29.2227 110.316 29.0312 109.652 28.6484C108.988 28.2578 108.473 27.6953 108.105 26.9609C107.746 26.2266 107.566 25.3438 107.566 24.3125V16.2969H111.047V23.6914C111.047 24.5117 111.25 25.1445 111.656 25.5898C112.062 26.0352 112.633 26.2578 113.367 26.2578C113.852 26.2578 114.277 26.1562 114.645 25.9531C115.02 25.7422 115.312 25.4336 115.523 25.0273C115.734 24.6133 115.84 24.1016 115.84 23.4922V16.2969H119.32V29H115.957L115.934 25.7539H116.355C115.98 26.8555 115.434 27.7109 114.715 28.3203C114.004 28.9219 113.094 29.2227 111.984 29.2227ZM129.223 29.2461C128.605 29.2461 128.059 29.1484 127.582 28.9531C127.105 28.7578 126.695 28.4922 126.352 28.1562C126.016 27.8203 125.742 27.4375 125.531 27.0078H125.449V29H122.027V11.5391H125.508V18.2305H125.566C125.785 17.832 126.059 17.4727 126.387 17.1523C126.723 16.8242 127.125 16.5664 127.594 16.3789C128.07 16.1836 128.621 16.0859 129.246 16.0859C130.262 16.0859 131.168 16.3477 131.965 16.8711C132.77 17.3945 133.402 18.1484 133.863 19.1328C134.332 20.1094 134.566 21.2812 134.566 22.6484C134.566 24.0156 134.34 25.1914 133.887 26.1758C133.434 27.1602 132.805 27.918 132 28.4492C131.195 28.9805 130.27 29.2461 129.223 29.2461ZM128.25 26.4219C128.836 26.4219 129.336 26.2695 129.75 25.9648C130.164 25.6602 130.48 25.2266 130.699 24.6641C130.918 24.0938 131.027 23.4219 131.027 22.6484C131.027 21.875 130.918 21.2109 130.699 20.6562C130.48 20.0938 130.164 19.6602 129.75 19.3555C129.336 19.043 128.836 18.8867 128.25 18.8867C127.656 18.8867 127.145 19.043 126.715 19.3555C126.285 19.668 125.953 20.1055 125.719 20.668C125.492 21.2227 125.379 21.8828 125.379 22.6484C125.379 23.4062 125.492 24.0703 125.719 24.6406C125.953 25.2031 126.285 25.6406 126.715 25.9531C127.152 26.2656 127.664 26.4219 128.25 26.4219ZM142.488 29.2695C141.199 29.2695 140.082 28.9961 139.137 28.4492C138.191 27.8945 137.461 27.125 136.945 26.1406C136.43 25.1484 136.172 23.9961 136.172 22.6836C136.172 21.3867 136.43 20.2422 136.945 19.25C137.469 18.2578 138.191 17.4805 139.113 16.918C140.043 16.3555 141.121 16.0742 142.348 16.0742C143.23 16.0742 144.043 16.2227 144.785 16.5195C145.535 16.8086 146.184 17.2344 146.73 17.7969C147.277 18.3594 147.703 19.043 148.008 19.8477C148.312 20.6523 148.465 21.5664 148.465 22.5898V23.5391H137.496V21.3359H146.777L145.184 21.8867C145.184 21.2383 145.074 20.6758 144.855 20.1992C144.637 19.7227 144.32 19.3555 143.906 19.0977C143.492 18.8398 142.988 18.7109 142.395 18.7109C141.809 18.7109 141.305 18.8438 140.883 19.1094C140.469 19.3672 140.148 19.7305 139.922 20.1992C139.695 20.6602 139.582 21.1992 139.582 21.8164V23.3516C139.582 24.0391 139.703 24.6328 139.945 25.1328C140.188 25.625 140.531 26.0039 140.977 26.2695C141.43 26.5273 141.961 26.6562 142.57 26.6562C143.008 26.6562 143.398 26.5938 143.742 26.4688C144.086 26.3438 144.375 26.1641 144.609 25.9297C144.852 25.6953 145.027 25.418 145.137 25.0977L148.301 25.3555C148.121 26.1289 147.762 26.8125 147.223 27.4062C146.691 27.9922 146.02 28.4492 145.207 28.7773C144.402 29.1055 143.496 29.2695 142.488 29.2695Z" fill="white"/>
</g>
<defs>
<clipPath id="clip0_198_233">
<rect width="170" height="40" fill="white"/>
</clipPath>
<clipPath id="clip1_198_233">
<rect width="25.7143" height="18" fill="white" transform="translate(7.14062 11)"/>
</clipPath>
</defs>
</svg>
