<svg width="140" height="140" viewBox="0 0 140 140" fill="none" xmlns="http://www.w3.org/2000/svg">
<g clip-path="url(#clip0_168_974)">
<path d="M70 140C108.66 140 140 108.66 140 70C140 31.3401 108.66 0 70 0C31.3401 0 0 31.3401 0 70C0 108.66 31.3401 140 70 140Z" fill="#FFC800"/>
<g clip-path="url(#clip1_168_974)">
<path d="M68.6562 17.8202L68.5163 22.2102C68.5163 22.3902 68.4163 22.4702 68.2463 22.4702L66.4162 22.4102C66.2362 22.4102 66.1562 22.3102 66.1562 22.1402L66.5662 9.2802C66.5662 9.0902 66.6663 8.9902 66.8363 9.0002L71.4663 9.1502C73.1563 9.2002 74.3763 9.6402 75.1463 10.4602C75.9063 11.2802 76.2662 12.3402 76.2262 13.6202C76.1962 14.6302 75.9262 15.4902 75.4062 16.1802C74.8963 16.8702 74.2162 17.3702 73.3862 17.6602L76.0363 22.4502C76.0663 22.5202 76.0663 22.5802 76.0363 22.6302C76.0063 22.6902 75.9563 22.7102 75.8763 22.7102L73.8462 22.6502C73.5862 22.6502 73.4062 22.5402 73.2962 22.3402L71.0262 17.9002L68.6362 17.8202H68.6562ZM68.7262 15.6502L71.4463 15.7402C72.0863 15.7602 72.6463 15.6102 73.1263 15.3002C73.6063 14.9902 73.8563 14.4002 73.8763 13.5502C73.8963 12.8602 73.6962 12.3302 73.2762 11.9602C72.8562 11.5902 72.2963 11.4002 71.6063 11.3802L68.8563 11.2902L68.7163 15.6602L68.7262 15.6502Z" fill="#00307C"/>
<path d="M80.9366 24.23C79.5666 23.88 78.5766 23.18 77.9766 22.13C77.3766 21.08 77.2566 19.85 77.6166 18.45C77.9766 17.06 78.6566 16.06 79.6866 15.43C80.7066 14.8 81.9066 14.67 83.2766 15.02C84.6466 15.37 85.6266 16.07 86.2266 17.11C86.8266 18.15 86.9466 19.37 86.5866 20.75C86.2266 22.14 85.5466 23.15 84.5366 23.8C83.5266 24.45 82.3266 24.59 80.9366 24.23ZM81.4566 22.1C82.0466 22.25 82.6166 22.19 83.1466 21.92C83.6766 21.65 84.0566 21.08 84.2866 20.21C84.5066 19.34 84.4566 18.64 84.1266 18.13C83.7966 17.62 83.3366 17.28 82.7366 17.13C82.1266 16.97 81.5566 17.04 81.0266 17.33C80.4966 17.62 80.1166 18.2 79.8966 19.07C79.6766 19.94 79.7266 20.63 80.0566 21.13C80.3866 21.63 80.8566 21.96 81.4666 22.11L81.4566 22.1Z" fill="#00307C"/>
<path d="M92.9722 27.5602C92.4922 27.8002 91.9722 27.9102 91.4222 27.9002C90.8722 27.8802 90.3422 27.7502 89.8422 27.4902C89.0422 27.0802 88.4622 26.5402 88.1022 25.8802C87.7422 25.2102 87.5922 24.4802 87.6422 23.7002C87.6922 22.9102 87.9122 22.1302 88.3022 21.3602C88.7122 20.5602 89.2222 19.9102 89.8522 19.4302C90.4822 18.9502 91.1722 18.6602 91.9222 18.5702C92.6722 18.4802 93.4322 18.6302 94.1922 19.0202C94.8222 19.3402 95.3022 19.7302 95.6222 20.1802C95.9422 20.6302 96.1522 21.0802 96.2522 21.5302C96.5322 21.2602 96.8422 21.1102 97.1922 21.1002C97.5322 21.0802 97.8922 21.1702 98.2622 21.3602L98.3722 21.4102C98.5322 21.4902 98.5622 21.6202 98.4822 21.7902L94.6322 29.3902C94.5522 29.5502 94.4322 29.5902 94.2722 29.5102L92.6822 28.7002C92.5422 28.6302 92.5022 28.5102 92.5922 28.3502L92.9822 27.5802L92.9722 27.5602ZM91.2822 25.7802C91.5522 25.9202 91.8822 26.0102 92.2722 26.0502C92.6522 26.0902 93.0522 26.0102 93.4422 25.7902C93.8422 25.5802 94.2022 25.1502 94.5322 24.5002C94.8622 23.8502 94.9922 23.3102 94.9222 22.8702C94.8522 22.4302 94.6922 22.0802 94.4322 21.8102C94.1722 21.5402 93.9022 21.3402 93.6322 21.2002C93.3422 21.0502 93.0122 20.9602 92.6222 20.9302C92.2322 20.9002 91.8422 20.9902 91.4522 21.2002C91.0622 21.4202 90.7222 21.8202 90.4222 22.4102C90.1122 23.0302 89.9822 23.5602 90.0522 24.0202C90.1222 24.4802 90.2722 24.8502 90.5222 25.1402C90.7722 25.4302 91.0222 25.6402 91.2822 25.7702V25.7802Z" fill="#00307C"/>
<path d="M102.707 25.6399C103.177 25.5499 103.657 25.5599 104.137 25.6699C104.617 25.7799 105.077 26.0399 105.507 26.4399C106.547 27.3999 106.937 28.4699 106.657 29.6499C107.187 29.5499 107.737 29.5399 108.307 29.6399C108.877 29.7299 109.407 30.0099 109.907 30.4699C110.747 31.2399 111.177 32.0999 111.207 33.0399C111.227 33.9799 110.787 34.9399 109.887 35.9199L106.547 39.5699C106.427 39.6999 106.297 39.6999 106.157 39.5699L104.837 38.3599C104.717 38.2499 104.717 38.1299 104.837 37.9999L107.997 34.5499C108.537 33.9599 108.797 33.4199 108.777 32.9399C108.747 32.4599 108.537 32.0399 108.147 31.6799C107.757 31.3199 107.307 31.1499 106.797 31.1699C106.287 31.1899 105.767 31.4799 105.237 32.0699L102.087 35.4999C101.967 35.6299 101.847 35.6399 101.727 35.5299L100.397 34.3099C100.267 34.1899 100.257 34.0699 100.377 33.9299L103.537 30.4799C104.077 29.8899 104.337 29.3499 104.317 28.8699C104.297 28.3899 104.087 27.9699 103.677 27.5999C103.267 27.2299 102.817 27.0599 102.327 27.0799C101.827 27.0999 101.307 27.3999 100.777 27.9799L97.6269 31.4099C97.5069 31.5399 97.3769 31.5499 97.2469 31.4299L95.8969 30.1899C95.7869 30.0899 95.7969 29.9799 95.9169 29.8499L101.677 23.5699C101.807 23.4299 101.927 23.4099 102.037 23.4999L102.127 23.5799C102.467 23.8899 102.697 24.2299 102.797 24.5799C102.907 24.9299 102.867 25.2799 102.687 25.6399H102.707Z" fill="#00307C"/>
<path d="M114.962 43.5101L110.312 46.0301C110.152 46.1101 110.032 46.0801 109.952 45.9201L109.082 44.3101C109.002 44.1501 109.032 44.0301 109.192 43.9501L120.502 37.8201C120.672 37.7301 120.802 37.7601 120.882 37.9201L123.852 43.3901C124.302 44.2101 124.112 44.8401 123.312 45.2801L122.862 45.5201C122.792 45.5601 122.712 45.5701 122.622 45.5601C122.532 45.5401 122.462 45.4901 122.402 45.3901L119.932 40.8301L116.852 42.5001L118.552 45.6401C119.002 46.4701 118.842 47.1001 118.062 47.5201L117.642 47.7501C117.442 47.8601 117.292 47.8101 117.182 47.6101L114.962 43.5201V43.5101Z" fill="#00307C"/>
<path d="M120.951 51.42C121.531 51.51 121.961 51.71 122.271 52.01C122.571 52.31 122.831 52.78 123.051 53.4L123.141 53.65C123.191 53.8 123.131 53.91 122.951 53.97L121.401 54.51C121.221 54.57 121.101 54.53 121.051 54.38L120.841 53.79C120.551 52.95 120.151 52.48 119.651 52.38C119.141 52.27 118.491 52.36 117.681 52.64L113.921 53.95C113.751 54.01 113.641 53.96 113.591 53.81L113.001 52.1C112.951 51.96 113.011 51.87 113.181 51.81L121.231 49.02C121.411 48.96 121.531 48.99 121.571 49.13L121.611 49.24C121.951 50.23 121.741 50.96 120.961 51.43L120.951 51.42Z" fill="#00307C"/>
<path d="M118.929 58.98C118.309 59.17 117.869 59.53 117.619 60.06C117.369 60.59 117.309 61.22 117.429 61.95C117.529 62.55 117.679 63.04 117.879 63.41C118.079 63.79 118.319 64.15 118.609 64.51C118.729 64.64 118.799 64.76 118.819 64.87C118.849 65.04 118.749 65.15 118.529 65.19C118.199 65.25 117.819 65.19 117.399 65.01C116.979 64.83 116.579 64.5 116.209 64.03C115.839 63.56 115.579 62.88 115.429 62.01C115.279 61.15 115.329 60.34 115.559 59.58C115.789 58.82 116.229 58.16 116.869 57.63C117.509 57.1 118.339 56.74 119.369 56.56C120.269 56.4 121.099 56.45 121.859 56.68C122.619 56.92 123.249 57.33 123.759 57.92C124.269 58.51 124.599 59.25 124.749 60.14C124.909 61.09 124.849 61.9 124.569 62.56C124.279 63.22 123.859 63.74 123.279 64.13C122.709 64.51 122.069 64.76 121.379 64.88C121.139 64.92 120.929 64.95 120.749 64.98C120.569 65.01 120.409 65.02 120.279 65.02C120.069 65.04 119.949 64.92 119.899 64.67L118.919 58.99L118.929 58.98ZM120.569 58.7L121.229 62.55C121.499 62.54 121.779 62.46 122.059 62.32C122.339 62.18 122.559 61.96 122.719 61.66C122.879 61.35 122.919 60.96 122.829 60.46C122.729 59.86 122.469 59.41 122.069 59.11C121.669 58.81 121.169 58.67 120.569 58.69V58.7Z" fill="#00307C"/>
<path d="M120.017 68.9602C119.367 69.0202 118.877 69.2902 118.527 69.7702C118.177 70.2502 117.987 70.8502 117.967 71.5902C117.947 72.2002 118.007 72.7102 118.117 73.1202C118.237 73.5302 118.397 73.9302 118.617 74.3402C118.707 74.4902 118.757 74.6202 118.747 74.7302C118.747 74.9102 118.627 74.9902 118.407 74.9902C118.067 74.9902 117.707 74.8502 117.327 74.5902C116.947 74.3302 116.627 73.9302 116.357 73.3902C116.087 72.8502 115.967 72.1402 115.987 71.2602C116.007 70.3902 116.207 69.6002 116.597 68.9002C116.977 68.1902 117.527 67.6402 118.257 67.2402C118.987 66.8402 119.867 66.6602 120.917 66.6802C121.837 66.7002 122.637 66.9102 123.337 67.2902C124.037 67.6702 124.577 68.2002 124.957 68.8802C125.337 69.5602 125.517 70.3502 125.497 71.2502C125.467 72.2102 125.257 72.9902 124.847 73.5902C124.437 74.1902 123.917 74.6102 123.277 74.8802C122.637 75.1502 121.967 75.2702 121.267 75.2502C121.027 75.2502 120.817 75.2302 120.627 75.2202C120.437 75.2102 120.287 75.1902 120.157 75.1702C119.947 75.1502 119.847 75.0102 119.857 74.7502L120.007 68.9802L120.017 68.9602ZM121.677 69.0002L121.577 72.9102C121.847 72.9502 122.137 72.9302 122.437 72.8502C122.737 72.7702 122.997 72.6002 123.207 72.3302C123.427 72.0602 123.537 71.6802 123.547 71.1802C123.567 70.5702 123.407 70.0802 123.067 69.7102C122.727 69.3402 122.267 69.1102 121.677 69.0102V69.0002Z" fill="#00307C"/>
<path d="M123.228 84.1701L124.428 82.1601C124.488 82.0101 124.608 81.9901 124.798 82.0901L125.938 82.9101C126.088 83.0201 126.108 83.1401 125.988 83.2501L124.548 85.0601L126.818 85.5601C126.998 85.5801 127.058 85.6901 126.998 85.8901L126.578 87.3001C126.528 87.4701 126.418 87.5201 126.258 87.4601L124.078 86.6601L124.298 88.9701C124.298 89.1401 124.228 89.2201 124.078 89.2101L122.678 89.2701C122.468 89.2401 122.378 89.1601 122.398 89.0401L122.478 86.7201L120.308 87.5901C120.158 87.6501 120.048 87.6101 119.988 87.4701L119.558 86.1301C119.508 85.9601 119.558 85.8501 119.708 85.8001L122.008 85.1701L120.418 83.4101C120.308 83.2801 120.328 83.1601 120.478 83.0501L121.568 82.1901C121.698 82.0801 121.818 82.0901 121.908 82.2201L123.238 84.1701H123.228Z" fill="#00307C"/>
<path d="M114.049 95.4002L110.349 93.0302C110.199 92.9302 110.169 92.8102 110.269 92.6602L111.259 91.1202C111.349 90.9702 111.479 90.9402 111.629 91.0402L122.469 97.9702C122.629 98.0702 122.669 98.2002 122.569 98.3502L120.069 102.25C119.159 103.67 118.159 104.5 117.059 104.74C115.969 104.98 114.869 104.74 113.789 104.05C112.939 103.5 112.339 102.83 112.009 102.04C111.679 101.25 111.599 100.42 111.769 99.5502L106.299 99.3702C106.229 99.3702 106.179 99.3302 106.139 99.2802C106.109 99.2302 106.109 99.1702 106.149 99.1002L107.239 97.3902C107.379 97.1702 107.559 97.0702 107.779 97.0802L112.759 97.4002L114.049 95.3902V95.4002ZM115.879 96.5702L114.409 98.8702C114.059 99.4102 113.899 99.9702 113.929 100.54C113.959 101.11 114.329 101.62 115.049 102.08C115.629 102.45 116.189 102.55 116.719 102.38C117.249 102.21 117.699 101.83 118.079 101.24L119.559 98.9202L115.879 96.5702Z" fill="#00307C"/>
<path d="M102.251 102.67C103.251 101.67 104.361 101.18 105.571 101.2C106.781 101.22 107.901 101.74 108.921 102.77C109.931 103.78 110.441 104.89 110.461 106.09C110.471 107.29 109.981 108.39 108.981 109.39C107.981 110.39 106.881 110.88 105.681 110.86C104.481 110.84 103.371 110.32 102.361 109.31C101.351 108.3 100.831 107.19 100.791 105.99C100.751 104.79 101.241 103.68 102.261 102.67H102.251ZM103.821 104.21C103.391 104.64 103.151 105.16 103.111 105.75C103.071 106.35 103.371 106.96 104.001 107.6C104.631 108.24 105.261 108.55 105.881 108.53C106.501 108.51 107.021 108.28 107.451 107.85C107.901 107.41 108.131 106.88 108.151 106.28C108.171 105.68 107.871 105.06 107.231 104.42C106.591 103.78 105.981 103.48 105.381 103.5C104.781 103.53 104.261 103.76 103.821 104.21Z" fill="#00307C"/>
<path d="M93.253 111.33C93.293 110.79 93.463 110.29 93.753 109.82C94.053 109.36 94.433 108.97 94.913 108.67C95.673 108.19 96.433 107.96 97.183 107.99C97.943 108.02 98.643 108.26 99.293 108.7C99.943 109.14 100.503 109.73 100.973 110.46C101.453 111.22 101.753 111.99 101.853 112.78C101.953 113.56 101.853 114.3 101.533 115C101.223 115.69 100.703 116.27 99.993 116.73C99.393 117.11 98.823 117.32 98.273 117.37C97.723 117.42 97.233 117.37 96.793 117.23C96.883 117.61 96.853 117.95 96.693 118.26C96.533 118.56 96.273 118.83 95.923 119.05L95.823 119.12C95.673 119.21 95.543 119.18 95.443 119.02L90.863 111.84C90.763 111.69 90.793 111.57 90.943 111.47L92.453 110.51C92.593 110.42 92.703 110.45 92.803 110.6L93.273 111.33H93.253ZM95.643 110.78C95.383 110.94 95.143 111.18 94.913 111.49C94.683 111.8 94.553 112.18 94.533 112.63C94.513 113.08 94.703 113.61 95.093 114.22C95.483 114.83 95.883 115.22 96.293 115.39C96.703 115.56 97.093 115.6 97.453 115.51C97.813 115.42 98.123 115.3 98.383 115.13C98.653 114.96 98.903 114.71 99.133 114.4C99.363 114.09 99.483 113.7 99.493 113.26C99.503 112.81 99.333 112.31 98.983 111.76C98.613 111.18 98.213 110.8 97.783 110.62C97.353 110.44 96.953 110.39 96.573 110.46C96.193 110.53 95.883 110.64 95.643 110.79V110.78Z" fill="#00307C"/>
<path d="M89.9635 120.68C89.7935 121.13 89.5435 121.54 89.2035 121.89C88.8635 122.24 88.4135 122.51 87.8435 122.68C86.4835 123.09 85.3735 122.87 84.4935 122.03C84.3135 122.54 84.0335 123.01 83.6635 123.45C83.2935 123.89 82.7835 124.21 82.1335 124.4C81.0435 124.73 80.0835 124.67 79.2635 124.21C78.4435 123.75 77.8435 122.88 77.4535 121.6L76.0235 116.86C75.9735 116.69 76.0435 116.58 76.2235 116.52L77.9335 116C78.0835 115.95 78.1935 116.01 78.2435 116.18L79.5935 120.66C79.8235 121.43 80.1535 121.93 80.5835 122.15C81.0135 122.37 81.4835 122.41 81.9935 122.26C82.5035 122.11 82.8735 121.81 83.1235 121.36C83.3635 120.92 83.3735 120.32 83.1435 119.56L81.7935 115.1C81.7435 114.93 81.7935 114.82 81.9535 114.78L83.6835 114.26C83.8535 114.21 83.9635 114.26 84.0135 114.44L85.3635 118.92C85.5935 119.69 85.9235 120.19 86.3435 120.41C86.7635 120.64 87.2335 120.67 87.7635 120.51C88.2835 120.35 88.6635 120.05 88.9035 119.61C89.1435 119.17 89.1435 118.57 88.9135 117.82L87.5735 113.36C87.5235 113.19 87.5735 113.08 87.7535 113.03L89.5135 112.5C89.6535 112.46 89.7435 112.52 89.8035 112.69L92.2635 120.84C92.3235 121.03 92.2735 121.14 92.1435 121.18L92.0235 121.21C91.5735 121.34 91.1735 121.37 90.8235 121.28C90.4735 121.19 90.1835 120.98 89.9635 120.65V120.68Z" fill="#00307C"/>
<path d="M68.2981 122.08L68.5081 116.8C68.5081 116.62 68.6081 116.54 68.7881 116.55L70.6181 116.62C70.7981 116.62 70.8781 116.72 70.8681 116.9L70.3581 129.75C70.3581 129.94 70.2581 130.04 70.0781 130.03L63.8581 129.78C62.9281 129.74 62.4781 129.27 62.5181 128.35L62.5381 127.84C62.5381 127.76 62.5681 127.68 62.6281 127.61C62.6881 127.54 62.7781 127.51 62.8881 127.51L68.0681 127.72L68.2081 124.22L64.6381 124.08C63.6881 124.04 63.2281 123.58 63.2681 122.7L63.2881 122.22C63.2881 121.99 63.4181 121.89 63.6381 121.9L68.2881 122.08H68.2981Z" fill="#00307C"/>
<path d="M58.4407 123.2C58.0707 123.65 57.6807 123.93 57.2607 124.03C56.8407 124.13 56.3107 124.12 55.6707 123.99L55.4108 123.94C55.2508 123.91 55.1907 123.8 55.2307 123.61L55.5608 122C55.6008 121.81 55.7007 121.73 55.8507 121.76L56.4607 121.88C57.3307 122.06 57.9307 121.96 58.2807 121.57C58.6307 121.19 58.8908 120.58 59.0608 119.75L59.8608 115.85C59.9008 115.68 59.9908 115.61 60.1508 115.64L61.9207 116C62.0607 116.03 62.1208 116.13 62.0808 116.3L60.3808 124.65C60.3408 124.84 60.2508 124.92 60.1108 124.89L59.9908 124.87C58.9708 124.66 58.4508 124.1 58.4308 123.2H58.4407Z" fill="#00307C"/>
<path d="M52.9862 117.61C53.1362 116.98 53.0561 116.42 52.7261 115.93C52.3961 115.44 51.8861 115.07 51.1961 114.8C50.6261 114.58 50.1261 114.46 49.7061 114.44C49.2861 114.42 48.8461 114.44 48.3861 114.51C48.2161 114.55 48.0761 114.55 47.9761 114.51C47.8061 114.45 47.7661 114.31 47.8461 114.1C47.9661 113.78 48.2161 113.49 48.5861 113.22C48.9561 112.95 49.4361 112.78 50.0361 112.7C50.6361 112.62 51.3461 112.75 52.1661 113.06C52.9761 113.37 53.6561 113.82 54.1961 114.42C54.7361 115.02 55.0761 115.72 55.2061 116.54C55.3461 117.36 55.2261 118.25 54.8461 119.23C54.5161 120.09 54.0561 120.78 53.4661 121.31C52.8761 121.84 52.1961 122.18 51.4261 122.31C50.6561 122.45 49.8561 122.36 49.0161 122.03C48.1161 121.69 47.4561 121.22 47.0261 120.64C46.6061 120.06 46.3761 119.42 46.3361 118.73C46.2961 118.04 46.4061 117.37 46.6561 116.71C46.7461 116.48 46.8262 116.29 46.8962 116.12C46.9662 115.95 47.0361 115.81 47.0961 115.69C47.1861 115.5 47.3461 115.45 47.5961 115.54L52.9862 117.6V117.61ZM52.3962 119.16L48.7461 117.77C48.6161 118.01 48.5461 118.29 48.5161 118.6C48.4961 118.91 48.5761 119.21 48.7561 119.5C48.9361 119.79 49.2561 120.03 49.7261 120.21C50.2961 120.43 50.8161 120.44 51.2761 120.25C51.7361 120.06 52.1162 119.7 52.3962 119.17V119.16Z" fill="#00307C"/>
<path d="M43.8222 113.45C44.1022 112.86 44.1222 112.3 43.8922 111.75C43.6622 111.21 43.2422 110.74 42.6122 110.34C42.0922 110.01 41.6322 109.8 41.2222 109.69C40.8122 109.58 40.3822 109.52 39.9222 109.49C39.7522 109.49 39.6122 109.47 39.5222 109.41C39.3722 109.32 39.3622 109.17 39.4822 108.98C39.6622 108.69 39.9622 108.45 40.3822 108.26C40.8022 108.07 41.3122 107.99 41.9022 108.04C42.5022 108.09 43.1722 108.35 43.9222 108.82C44.6522 109.28 45.2322 109.86 45.6422 110.55C46.0522 111.24 46.2422 112 46.2122 112.83C46.1822 113.66 45.8922 114.51 45.3322 115.4C44.8422 116.17 44.2522 116.76 43.5722 117.17C42.8922 117.58 42.1522 117.77 41.3722 117.75C40.5922 117.73 39.8222 117.48 39.0622 117C38.2422 116.48 37.6922 115.9 37.3922 115.24C37.0922 114.58 36.9922 113.92 37.0922 113.24C37.1922 112.56 37.4322 111.92 37.8022 111.32C37.9322 111.12 38.0522 110.94 38.1522 110.79C38.2622 110.64 38.3522 110.51 38.4322 110.41C38.5622 110.24 38.7322 110.23 38.9422 110.36L43.8122 113.44L43.8222 113.45ZM42.9322 114.86L39.6322 112.77C39.4622 112.98 39.3322 113.24 39.2422 113.54C39.1522 113.84 39.1722 114.15 39.2922 114.47C39.4122 114.79 39.6822 115.09 40.1022 115.35C40.6222 115.68 41.1222 115.79 41.6122 115.69C42.1022 115.59 42.5422 115.31 42.9322 114.85V114.86Z" fill="#00307C"/>
<path d="M29.1183 108.41L30.2383 110.47C30.3383 110.6 30.2883 110.72 30.1083 110.82L28.8183 111.39C28.6483 111.46 28.5383 111.42 28.4983 111.26L27.6783 109.09L26.0883 110.79C25.9783 110.93 25.8583 110.93 25.7083 110.78L24.7083 109.7C24.5883 109.57 24.5983 109.45 24.7383 109.34L26.5383 107.87L24.4383 106.88C24.2983 106.8 24.2683 106.69 24.3483 106.57L25.0083 105.33C25.1383 105.16 25.2583 105.12 25.3583 105.21L27.3083 106.46L27.6683 104.15C27.6983 103.99 27.7883 103.92 27.9283 103.94L29.2983 104.25C29.4683 104.29 29.5383 104.39 29.5083 104.55L28.8683 106.85L31.1883 106.38C31.3583 106.35 31.4583 106.43 31.4683 106.61L31.6583 107.98C31.6883 108.15 31.6183 108.25 31.4583 108.26L29.0983 108.41H29.1183Z" fill="#00307C"/>
<path d="M24.1586 94.8L28.0786 92.82C28.2386 92.74 28.3586 92.78 28.4386 92.94L29.2686 94.58C29.3486 94.74 29.3086 94.86 29.1486 94.94L17.6686 100.73C17.4986 100.82 17.3686 100.78 17.2886 100.62L15.1986 96.48C14.4386 94.97 14.2386 93.69 14.5886 92.62C14.9386 91.55 15.6986 90.74 16.8486 90.16C17.7486 89.7 18.6286 89.54 19.4886 89.65C20.3386 89.77 21.0986 90.12 21.7486 90.71L24.6886 86.09C24.7286 86.03 24.7886 86 24.8486 86C24.9086 86 24.9586 86.03 24.9986 86.1L25.9086 87.91C26.0286 88.14 26.0186 88.35 25.9086 88.54L23.0986 92.66L24.1786 94.79L24.1586 94.8ZM22.2186 95.78L20.9886 93.35C20.6986 92.78 20.2986 92.35 19.7986 92.09C19.2986 91.82 18.6586 91.88 17.8986 92.26C17.2786 92.57 16.9086 93 16.7886 93.55C16.6686 94.1 16.7686 94.68 17.0786 95.3L18.3186 97.76L22.2186 95.79V95.78Z" fill="#00307C"/>
<path d="M23.9202 80.9501C24.2702 82.3201 24.1202 83.5301 23.4802 84.5601C22.8402 85.5901 21.8202 86.2801 20.4202 86.6401C19.0302 86.9901 17.8202 86.8601 16.7802 86.2601C15.7402 85.6601 15.0502 84.6701 14.7002 83.3001C14.3502 81.9301 14.5002 80.7301 15.1302 79.7101C15.7602 78.6901 16.7702 78.0001 18.1602 77.6501C19.5502 77.3001 20.7702 77.4201 21.8202 78.0001C22.8702 78.5801 23.5702 79.5701 23.9202 80.9601V80.9501ZM21.8002 81.5101C21.6502 80.9201 21.3302 80.4501 20.8402 80.1101C20.3502 79.7701 19.6702 79.7101 18.7902 79.9301C17.9102 80.1501 17.3302 80.5301 17.0402 81.0701C16.7402 81.6101 16.6702 82.1701 16.8202 82.7701C16.9702 83.3801 17.3002 83.8501 17.8102 84.1801C18.3202 84.5101 19.0102 84.5601 19.8802 84.3401C20.7502 84.1201 21.3302 83.7501 21.6102 83.2201C21.8902 82.6901 21.9602 82.1201 21.8002 81.5201V81.5101Z" fill="#00307C"/>
<path d="M21.1023 68.8C21.5423 69.11 21.8923 69.51 22.1423 70C22.3923 70.49 22.5223 71.02 22.5423 71.58C22.5723 72.48 22.3723 73.25 21.9623 73.88C21.5423 74.51 20.9823 75 20.2623 75.33C19.5423 75.66 18.7523 75.85 17.8923 75.87C16.9923 75.9 16.1823 75.75 15.4523 75.44C14.7223 75.12 14.1423 74.65 13.7123 74.03C13.2823 73.41 13.0323 72.67 13.0023 71.81C12.9823 71.1 13.0923 70.5 13.3323 70C13.5723 69.5 13.8723 69.1 14.2123 68.8C13.8423 68.68 13.5623 68.48 13.3823 68.19C13.2023 67.9 13.1123 67.54 13.0923 67.12V67C13.0923 66.82 13.1723 66.73 13.3723 66.73L21.8823 66.48C22.0623 66.48 22.1523 66.56 22.1523 66.74L22.2023 68.53C22.2023 68.69 22.1223 68.77 21.9423 68.78L21.0723 68.81L21.1023 68.8ZM20.3523 71.14C20.3523 70.84 20.2623 70.5 20.1223 70.14C19.9723 69.78 19.7123 69.48 19.3323 69.23C18.9523 68.98 18.4023 68.87 17.6823 68.89C16.9623 68.91 16.4223 69.06 16.0623 69.32C15.7123 69.59 15.4723 69.9 15.3623 70.26C15.2523 70.62 15.2023 70.95 15.2123 71.26C15.2123 71.58 15.3023 71.92 15.4623 72.28C15.6223 72.64 15.8823 72.94 16.2623 73.17C16.6423 73.41 17.1623 73.52 17.8223 73.5C18.5123 73.48 19.0423 73.33 19.4123 73.05C19.7823 72.77 20.0323 72.46 20.1723 72.1C20.3023 71.74 20.3723 71.42 20.3623 71.13L20.3523 71.14Z" fill="#00307C"/>
<path d="M14.7407 61.1599C14.4307 60.7899 14.2207 60.3599 14.0807 59.8899C13.9407 59.4199 13.9507 58.8899 14.1007 58.3199C14.4407 56.9499 15.2007 56.0999 16.3707 55.7699C16.0307 55.3499 15.7607 54.8699 15.5707 54.3299C15.3807 53.7899 15.3707 53.1899 15.5307 52.5299C15.8007 51.4199 16.3507 50.6299 17.1607 50.1599C17.9707 49.6899 19.0307 49.6199 20.3207 49.9399L25.1207 51.1299C25.2907 51.1699 25.3507 51.2899 25.3107 51.4699L24.8807 53.1999C24.8407 53.3599 24.7407 53.4099 24.5607 53.3699L20.0207 52.2499C19.2407 52.0599 18.6407 52.0899 18.2307 52.3399C17.8207 52.5899 17.5507 52.9799 17.4207 53.4999C17.2907 54.0099 17.3607 54.4899 17.6107 54.9299C17.8707 55.3699 18.3807 55.6799 19.1407 55.8699L23.6607 56.9899C23.8307 57.0299 23.9007 57.1299 23.8607 57.2899L23.4307 59.0499C23.3907 59.2199 23.2807 59.2899 23.1107 59.2399L18.5707 58.1199C17.7907 57.9299 17.1907 57.9499 16.7907 58.1999C16.3907 58.4499 16.1107 58.8399 15.9807 59.3699C15.8507 59.8999 15.9107 60.3799 16.1707 60.8099C16.4307 61.2399 16.9407 61.5499 17.7107 61.7399L22.2307 62.8599C22.4007 62.8999 22.4707 63.0099 22.4207 63.1799L21.9807 64.9599C21.9507 65.0999 21.8407 65.1499 21.6707 65.1099L13.4007 63.0399C13.2107 62.9899 13.1407 62.8999 13.1707 62.7599L13.2007 62.6399C13.3107 62.1899 13.5007 61.8299 13.7507 61.5699C14.0007 61.3099 14.3307 61.1699 14.7307 61.1499L14.7407 61.1599Z" fill="#00307C"/>
<path d="M24.5792 41.8499L29.0092 44.7299C29.1592 44.8299 29.1792 44.9499 29.0892 45.0999L28.0892 46.6399C27.9892 46.7899 27.8692 46.8099 27.7192 46.7199L16.9392 39.7099C16.7792 39.6099 16.7492 39.4799 16.8392 39.3299L20.2392 34.1099C20.7492 33.3299 21.3892 33.1899 22.1592 33.6899L22.5792 33.9699C22.6492 34.0099 22.6992 34.0799 22.7292 34.1699C22.7592 34.2599 22.7392 34.3499 22.6792 34.4399L19.8492 38.7899L22.7792 40.6999L24.7292 37.7099C25.2492 36.9099 25.8792 36.7599 26.6192 37.2399L27.0192 37.4999C27.2092 37.6199 27.2392 37.7799 27.1192 37.9699L24.5792 41.8699V41.8499Z" fill="#00307C"/>
<path d="M28.6579 32.8099C28.4579 32.2599 28.4279 31.7799 28.5479 31.3699C28.6679 30.9599 28.9579 30.5099 29.3979 30.0199L29.5779 29.8199C29.6879 29.6999 29.8079 29.7099 29.9579 29.8399L31.1679 30.9399C31.3079 31.0699 31.3279 31.1899 31.2179 31.3099L30.7979 31.7699C30.1979 32.4199 29.9779 32.9999 30.1279 33.4899C30.2779 33.9799 30.6679 34.5199 31.2979 35.0899L34.2479 37.7699C34.3779 37.8899 34.3879 38.0099 34.2779 38.1299L33.0579 39.4699C32.9579 39.5799 32.8479 39.5699 32.7179 39.4499L26.4179 33.7199C26.2779 33.5899 26.2479 33.4699 26.3479 33.3599L26.4279 33.2699C27.1279 32.4999 27.8779 32.3399 28.6579 32.7899V32.8099Z" fill="#00307C"/>
<path d="M36.2729 30.9699C36.7329 31.4199 37.2629 31.6299 37.8529 31.5999C38.4429 31.5599 39.0229 31.3199 39.6029 30.8599C40.0829 30.4799 40.4429 30.1099 40.6729 29.7599C40.9129 29.4099 41.1129 29.0199 41.2929 28.5899C41.3429 28.4199 41.4129 28.3099 41.5029 28.2399C41.6429 28.1299 41.7829 28.1599 41.9229 28.3399C42.1329 28.5999 42.2629 28.9699 42.3029 29.4199C42.3429 29.8799 42.2529 30.3799 42.0129 30.9299C41.7729 31.4799 41.3029 32.0299 40.6129 32.5799C39.9329 33.1199 39.2029 33.4699 38.4129 33.6299C37.6229 33.7899 36.8529 33.7199 36.0729 33.4199C35.3029 33.1199 34.5929 32.5599 33.9429 31.7399C33.3729 31.0199 33.0129 30.2699 32.8529 29.4899C32.6929 28.7099 32.7529 27.9599 33.0329 27.2299C33.3129 26.4999 33.7929 25.8499 34.5029 25.2899C35.2629 24.6899 35.9929 24.3599 36.7129 24.2899C37.4329 24.2199 38.0929 24.3499 38.7029 24.6699C39.3129 24.9899 39.8429 25.4199 40.2829 25.9799C40.4329 26.1699 40.5629 26.3399 40.6729 26.4899C40.7829 26.6399 40.8729 26.7699 40.9329 26.8799C41.0529 27.0499 41.0029 27.2199 40.8029 27.3799L36.2829 30.9599L36.2729 30.9699ZM35.2429 29.6699L38.3029 27.2399C38.1629 27.0099 37.9629 26.7999 37.7029 26.6199C37.4529 26.4399 37.1529 26.3599 36.8029 26.3599C36.4629 26.3599 36.0929 26.5199 35.7029 26.8299C35.2229 27.2099 34.9529 27.6499 34.8829 28.1399C34.8129 28.6399 34.9329 29.1399 35.2429 29.6599V29.6699Z" fill="#00307C"/>
<path d="M44.5309 25.1999C44.8909 25.7399 45.3709 26.0499 45.9509 26.1299C46.5309 26.2099 47.1509 26.0799 47.8109 25.7499C48.3509 25.4699 48.7809 25.1899 49.0809 24.8899C49.3809 24.5899 49.6609 24.2499 49.9109 23.8699C49.9909 23.7199 50.0909 23.6199 50.1909 23.5699C50.3509 23.4899 50.4809 23.5499 50.5809 23.7499C50.7309 24.0499 50.7909 24.4299 50.7409 24.8899C50.6909 25.3499 50.5009 25.8199 50.1509 26.3099C49.8009 26.7999 49.2409 27.2499 48.4509 27.6499C47.6809 28.0399 46.8909 28.2399 46.0909 28.2499C45.2909 28.2499 44.5409 28.0299 43.8409 27.5799C43.1409 27.1299 42.5609 26.4399 42.0809 25.5099C41.6609 24.6899 41.4609 23.8899 41.4609 23.0899C41.4609 22.2899 41.6709 21.5699 42.0809 20.8999C42.4909 20.2299 43.1009 19.6999 43.9009 19.2899C44.7609 18.8499 45.5509 18.6699 46.2609 18.7499C46.9809 18.8299 47.6009 19.0799 48.1409 19.5099C48.6809 19.9399 49.1009 20.4699 49.4309 21.0999C49.5409 21.3099 49.6309 21.5099 49.7109 21.6699C49.7909 21.8399 49.8509 21.9799 49.8909 22.1099C49.9709 22.2999 49.8909 22.4599 49.6709 22.5799L44.5309 25.1999ZM43.7709 23.7199L47.2509 21.9399C47.1509 21.6799 47.0009 21.4399 46.7909 21.2199C46.5809 20.9999 46.3009 20.8499 45.9609 20.7899C45.6209 20.7299 45.2309 20.8099 44.7909 21.0399C44.2509 21.3199 43.8909 21.6899 43.7309 22.1699C43.5709 22.6499 43.5809 23.1599 43.7809 23.7299L43.7709 23.7199Z" fill="#00307C"/>
<path d="M56.3378 15.1399L53.9978 15.0499C53.8378 15.0699 53.7578 14.9699 53.7578 14.7499L53.9278 13.3599C53.9578 13.1699 54.0478 13.0999 54.2078 13.1499L56.4878 13.5499L55.8378 11.3199C55.7678 11.1499 55.8378 11.0499 56.0378 11.0099L57.4778 10.6999C57.6478 10.6599 57.7478 10.7299 57.7678 10.9099L58.1078 13.2099L60.0278 11.9099C60.1778 11.8299 60.2778 11.8599 60.3378 11.9899L61.0578 13.1899C61.1278 13.3899 61.1078 13.5099 60.9878 13.5499L58.9178 14.5799L60.7178 16.0699C60.8378 16.1799 60.8578 16.2899 60.7678 16.4099L59.7978 17.4299C59.6778 17.5499 59.5578 17.5599 59.4378 17.4599L57.7878 15.7399L57.0078 17.9799C56.9478 18.1399 56.8278 18.1799 56.6678 18.0999L55.3978 17.5599C55.2378 17.4999 55.1878 17.3899 55.2578 17.2399L56.3378 15.1299V15.1399Z" fill="#00307C"/>
</g>
<path d="M107.689 70.0009C107.689 49.184 90.8139 32.3086 69.997 32.3086C49.1801 32.3086 32.3047 49.184 32.3047 70.0009C32.3047 90.8178 49.1801 107.693 69.997 107.693C90.8139 107.693 107.689 90.8178 107.689 70.0009Z" fill="#00307C"/>
<g clip-path="url(#clip2_168_974)">
<path d="M69.9367 56.3879C69.9367 61.084 63.9281 64.8912 56.5147 64.8912H48V52.9905H56.0605C59.7718 52.9905 62.9158 51.4464 63.9783 49.318C64.2054 48.8638 64.3378 48.3822 64.3606 47.8823H75.7809C75.8014 48.3468 75.9178 48.7976 76.1187 49.2244C77.1355 51.4007 80.3161 52.9893 84.0822 52.9893H92V64.8889H83.3598C75.9464 64.8889 69.9367 61.0818 69.9367 56.3856V56.3879Z" fill="#FFC800"/>
<path d="M69.9367 83.3797C69.9367 78.6836 63.9281 74.8765 56.5147 74.8765H48V86.776H56.0605C59.7718 86.776 62.9158 88.3201 63.9783 90.4485C64.2054 90.9027 64.3378 91.3843 64.3606 91.8842H75.7809C75.8014 91.4197 75.9178 90.9689 76.1187 90.5421C77.1355 88.3658 80.3161 86.7772 84.0822 86.7772H92V74.8776H83.3598C75.9464 74.8776 69.9367 78.6847 69.9367 83.3809V83.3797Z" fill="#FFC800"/>
<path d="M70.0023 77.6606C70.0023 75.6144 68.6933 73.7611 66.5763 72.4201C64.4593 71.0792 61.5355 70.2495 58.3047 70.2495C61.5355 70.2495 64.4593 69.4198 66.5763 68.0789C68.6933 66.738 70.0023 64.8857 70.0023 62.8384C70.0023 64.8846 71.3112 66.738 73.4282 68.0789C75.5452 69.4198 78.469 70.2495 81.6998 70.2495C75.2394 70.2495 70.0023 73.5682 70.0023 77.6606Z" fill="#E9F3FF"/>
</g>
</g>
<defs>
<clipPath id="clip0_168_974">
<rect width="140" height="140" fill="white"/>
</clipPath>
<clipPath id="clip1_168_974">
<rect width="114.02" height="121.03" fill="white" transform="translate(13 9)"/>
</clipPath>
<clipPath id="clip2_168_974">
<rect x="48" y="48" width="44" height="44" rx="21.7284" fill="white"/>
</clipPath>
</defs>
</svg>
