<svg width="50" height="50" viewBox="0 0 50 50" fill="none" xmlns="http://www.w3.org/2000/svg">
<g clip-path="url(#clip0_149_144)">
<g clip-path="url(#clip1_149_144)">
<path d="M24.928 9.53214C24.928 14.8687 18.1001 19.195 9.67579 19.195H0V5.67142H9.15964C13.377 5.67142 16.9498 3.91679 18.1572 1.49817C18.4153 0.98202 18.5657 0.434749 18.5916 -0.13327H31.5692C31.5925 0.394547 31.7248 0.906802 31.9531 1.39182C33.1085 3.86491 36.7229 5.67013 41.0025 5.67013H50V19.1924H40.1816C31.7572 19.1924 24.928 14.8661 24.928 9.52955V9.53214Z" fill="#FFC800"/>
<path d="M24.928 40.204C24.928 34.8674 18.1001 30.5411 9.67579 30.5411H0V44.0634H9.15964C13.377 44.0634 16.9498 45.818 18.1572 48.2366C18.4153 48.7528 18.5657 49.3001 18.5916 49.8681H31.5692C31.5925 49.3403 31.7248 48.828 31.9531 48.343C33.1085 45.8699 36.7229 44.0647 41.0025 44.0647H50V30.5424H40.1816C31.7572 30.5424 24.928 34.8687 24.928 40.2053V40.204Z" fill="#FFC800"/>
<path d="M24.9958 33.7055C24.9958 31.3803 23.5083 29.2742 21.1027 27.7504C18.697 26.2266 15.3745 25.2838 11.7031 25.2838C15.3745 25.2838 18.697 24.341 21.1027 22.8172C23.5083 21.2934 24.9958 19.1886 24.9958 16.862C24.9958 19.1873 26.4833 21.2934 28.889 22.8172C31.2946 24.341 34.6171 25.2838 38.2885 25.2838C30.9471 25.2838 24.9958 29.055 24.9958 33.7055Z" fill="#E9F3FF"/>
</g>
</g>
<defs>
<clipPath id="clip0_149_144">
<rect width="50" height="50" fill="white"/>
</clipPath>
<clipPath id="clip1_149_144">
<rect width="50" height="50" rx="24.6914" fill="white"/>
</clipPath>
</defs>
</svg>
