<svg width="155" height="30" viewBox="0 0 155 30" fill="none" xmlns="http://www.w3.org/2000/svg">
<g clip-path="url(#clip0_149_129)">
<g clip-path="url(#clip1_149_129)">
<path d="M14.9568 5.71929C14.9568 8.92121 10.8601 11.517 5.80547 11.517H0V3.40286H5.49579C8.0262 3.40286 10.1699 2.35008 10.8943 0.898905C11.0492 0.589218 11.1394 0.260856 11.155 -0.0799561H18.9415C18.9555 0.236734 19.0349 0.544088 19.1718 0.8351C19.8651 2.31895 22.0337 3.40208 24.6015 3.40208H30V11.5154H24.1089C19.0543 11.5154 14.9568 8.91966 14.9568 5.71774V5.71929Z" fill="#FFC800"/>
<path d="M14.9568 24.1224C14.9568 20.9204 10.8601 18.3247 5.80547 18.3247H0V26.438H5.49579C8.0262 26.438 10.1699 27.4908 10.8943 28.942C11.0492 29.2517 11.1394 29.58 11.155 29.9208H18.9415C18.9555 29.6041 19.0349 29.2968 19.1718 29.0058C19.8651 27.5219 22.0337 26.4388 24.6015 26.4388H30V18.3255H24.1089C19.0543 18.3255 14.9568 20.9212 14.9568 24.1231V24.1224Z" fill="#FFC800"/>
<path d="M14.9991 20.2233C14.9991 18.8282 14.1066 17.5645 12.6632 16.6502C11.2198 15.7359 9.22626 15.1703 7.02344 15.1703C9.22626 15.1703 11.2198 14.6046 12.6632 13.6903C14.1066 12.776 14.9991 11.5131 14.9991 10.1172C14.9991 11.5124 15.8915 12.776 17.3349 13.6903C18.7783 14.6046 20.7718 15.1703 22.9747 15.1703C18.5698 15.1703 14.9991 17.433 14.9991 20.2233Z" fill="#E9F3FF"/>
</g>
<path d="M136.951 12.9167C137.946 11.6898 139.15 11.0764 140.562 11.0764C142.599 11.0764 144.057 11.8287 144.937 13.3333C146.048 11.8287 147.425 11.0764 149.069 11.0764C152.564 11.0764 154.312 13.0903 154.312 17.1181V24.2014C154.312 24.5023 154.161 24.6528 153.86 24.6528H150.805C150.504 24.6528 150.353 24.5023 150.353 24.2014V17.4653C150.353 15.6134 149.613 14.6875 148.131 14.6875C147.413 14.6875 146.846 14.9421 146.43 15.4514C146.013 15.9375 145.805 16.5972 145.805 17.4306V24.2014C145.805 24.5023 145.654 24.6528 145.353 24.6528H142.263C141.962 24.6528 141.812 24.5023 141.812 24.2014V17.4653C141.812 15.6134 141.082 14.6875 139.624 14.6875C138.907 14.6875 138.328 14.9421 137.888 15.4514C137.471 15.9375 137.263 16.5972 137.263 17.4306V24.2014C137.263 24.5023 137.113 24.6528 136.812 24.6528H133.756C133.455 24.6528 133.305 24.5023 133.305 24.2014V11.8403C133.305 11.5393 133.455 11.3889 133.756 11.3889H133.93C135.504 11.3889 136.511 11.8981 136.951 12.9167Z" fill="#E9F3FF"/>
<path d="M124.517 21.2498C125.119 21.2498 125.663 21.0762 126.149 20.729C126.936 20.1966 127.33 19.2706 127.33 17.9512C127.33 15.8678 126.392 14.8262 124.517 14.8262C122.55 14.8262 121.566 15.8678 121.566 17.9512C121.566 18.9697 121.832 19.7799 122.365 20.3817C122.897 20.9604 123.615 21.2498 124.517 21.2498ZM127.33 23.1595C126.358 24.3632 125.061 24.9651 123.441 24.9651C121.659 24.9651 120.235 24.3516 119.17 23.1248C118.036 21.8516 117.469 20.1155 117.469 17.9165C117.469 16.0646 117.943 14.5137 118.892 13.2637C120.003 11.7359 121.543 10.972 123.51 10.972C125.27 10.972 126.682 11.5623 127.747 12.7428C128.209 11.8401 129.193 11.3887 130.698 11.3887H130.872C131.172 11.3887 131.323 11.5391 131.323 11.8401V24.2012C131.323 24.5021 131.172 24.6526 130.872 24.6526H127.781C127.48 24.6526 127.33 24.5021 127.33 24.2012V23.1595Z" fill="#E9F3FF"/>
<path d="M109.391 21.25C111.266 21.25 112.203 20.1851 112.203 18.0555C112.203 17.0138 111.96 16.2152 111.474 15.6597C110.988 15.081 110.305 14.7916 109.425 14.7916C108.546 14.7916 107.851 15.081 107.342 15.6597C106.856 16.2152 106.613 17.0138 106.613 18.0555C106.613 20.1851 107.539 21.25 109.391 21.25ZM109.46 25C107.492 25 105.884 24.4328 104.634 23.2986C103.222 22.0254 102.516 20.2546 102.516 17.9861C102.516 16.0185 103.048 14.4212 104.113 13.1944C105.363 11.7361 107.122 11.0069 109.391 11.0069C111.358 11.0069 112.955 11.574 114.182 12.7083C115.617 13.9814 116.335 15.7407 116.335 17.9861C116.335 19.9537 115.791 21.5625 114.703 22.8125C113.453 24.2708 111.705 25 109.46 25Z" fill="#E9F3FF"/>
<path d="M91.1953 14.5139H94.6675C96.612 14.5139 97.5842 13.588 97.5842 11.7361C97.5842 10.9259 97.3296 10.2894 96.8203 9.8264C96.3111 9.36343 95.5935 9.13195 94.6675 9.13195H91.1953V14.5139ZM91.1953 18.2639V24.2014C91.1953 24.5023 91.0448 24.6528 90.7439 24.6528H87.5842C87.2833 24.6528 87.1328 24.5023 87.1328 24.2014V5.79862C87.1328 5.49769 87.2833 5.34723 87.5842 5.34723H94.2856C96.6236 5.34723 98.4175 5.86806 99.6675 6.90973C100.987 7.99769 101.647 9.59491 101.647 11.7014C101.647 13.1134 101.311 14.3519 100.64 15.4167C99.9685 16.4583 99.031 17.2222 97.8273 17.7083L101.751 24.2014C101.843 24.3171 101.855 24.4213 101.786 24.5139C101.739 24.6065 101.647 24.6528 101.508 24.6528H97.9314C97.5148 24.6528 97.2254 24.5023 97.0634 24.2014L93.8342 18.2639H91.1953Z" fill="#E9F3FF"/>
<path d="M81.066 13.2985C81.5058 12.5577 81.9687 12.06 82.4549 11.8054C82.9641 11.5276 83.7049 11.3887 84.6771 11.3887H85.0937C85.3947 11.3887 85.5451 11.5392 85.5451 11.8401V14.6526C85.5451 14.9535 85.3947 15.104 85.0937 15.104H84.0868C82.9757 15.104 82.2118 15.3934 81.7951 15.9721C81.4248 16.4582 81.2396 17.3841 81.2396 18.7498V24.2012C81.2396 24.5022 81.0891 24.6526 80.7882 24.6526H77.7326C77.4317 24.6526 77.2812 24.5022 77.2812 24.2012V11.8401C77.2812 11.5392 77.4317 11.3887 77.7326 11.3887H77.9062C79.6424 11.3887 80.6956 12.0253 81.066 13.2985Z" fill="#FFC800"/>
<path d="M68.4939 21.2498C69.0958 21.2498 69.6398 21.0762 70.1259 20.729C70.9129 20.1966 71.3064 19.2706 71.3064 17.9512C71.3064 15.8678 70.3689 14.8262 68.4939 14.8262C66.5263 14.8262 65.5425 15.8678 65.5425 17.9512C65.5425 18.9697 65.8087 19.7799 66.3411 20.3817C66.8736 20.9604 67.5911 21.2498 68.4939 21.2498ZM71.3064 23.1595C70.3342 24.3632 69.0379 24.9651 67.4175 24.9651C65.6351 24.9651 64.2115 24.3516 63.1467 23.1248C62.0124 21.8516 61.4453 20.1155 61.4453 17.9165C61.4453 16.0646 61.9198 14.5137 62.8689 13.2637C63.98 11.7359 65.5194 10.972 67.487 10.972C69.2462 10.972 70.6583 11.5623 71.7231 12.7428C72.1861 11.8401 73.1699 11.3887 74.6745 11.3887H74.8481C75.149 11.3887 75.2995 11.5391 75.2995 11.8401V24.2012C75.2995 24.5021 75.149 24.6526 74.8481 24.6526H71.7578C71.4569 24.6526 71.3064 24.5021 71.3064 24.2012V23.1595Z" fill="#FFC800"/>
<path d="M53.6727 14.9306H51.3811C51.0802 14.9306 50.9297 14.7801 50.9297 14.4792V11.8403C50.9297 11.5394 51.0802 11.3889 51.3811 11.3889H53.6727V7.1875C53.6727 6.88658 53.8116 6.73611 54.0894 6.73611H54.263C55.4436 6.73611 56.3001 7.01389 56.8325 7.56945C57.3649 8.10185 57.6311 8.95834 57.6311 10.1389V11.3889H60.4783C60.7792 11.3889 60.9297 11.5394 60.9297 11.8403V14.4792C60.9297 14.7801 60.7792 14.9306 60.4783 14.9306H57.6311V24.2014C57.6311 24.5023 57.4806 24.6528 57.1797 24.6528H54.0894C53.8116 24.6528 53.6727 24.5023 53.6727 24.2014V14.9306Z" fill="#FFC800"/>
<path d="M36.1875 19.5486C36.1875 19.0162 36.3611 18.75 36.7083 18.75C36.8472 18.75 36.963 18.7963 37.0556 18.8889C38.8148 20.463 40.8403 21.25 43.1319 21.25C45.4468 21.25 46.6042 20.5671 46.6042 19.2014C46.6042 18.6921 46.3727 18.287 45.9097 17.9861C45.4468 17.662 44.5324 17.2801 43.1667 16.8403C41.3843 16.2847 40.1111 15.7639 39.3472 15.2778C37.6574 14.213 36.8125 12.6736 36.8125 10.6597C36.8125 8.96991 37.4144 7.61574 38.6181 6.59722C39.9144 5.53241 41.6389 5 43.7917 5C45.4815 5 47.0208 5.21991 48.4097 5.65972C49.1505 5.91435 49.6366 6.27315 49.8681 6.73611C50.0995 7.19907 50.1227 7.83565 49.9375 8.64583L49.7292 9.47917C49.6597 9.78009 49.5208 9.93056 49.3125 9.93056C49.1505 9.93056 48.9537 9.87268 48.7222 9.75694C47.1713 9.0162 45.5625 8.64583 43.8958 8.64583C41.9745 8.64583 41.0139 9.24768 41.0139 10.4514C41.0139 10.9838 41.2454 11.4236 41.7083 11.7708C42.1944 12.0949 43.1204 12.4653 44.4861 12.8819C46.2917 13.4375 47.5648 13.9352 48.3056 14.375C49.9954 15.3935 50.8403 16.8981 50.8403 18.8889C50.8403 20.625 50.2847 22.037 49.1736 23.125C47.8773 24.375 46.0139 25 43.5833 25C41.3611 25 39.5787 24.4907 38.2361 23.4722C36.8704 22.4306 36.1875 21.1227 36.1875 19.5486Z" fill="#FFC800"/>
</g>
<defs>
<clipPath id="clip0_149_129">
<rect width="154.315" height="30" fill="white"/>
</clipPath>
<clipPath id="clip1_149_129">
<rect width="30" height="30" rx="14.8148" fill="white"/>
</clipPath>
</defs>
</svg>
