<svg width="40" height="40" viewBox="0 0 40 40" fill="none" xmlns="http://www.w3.org/2000/svg">
<g clip-path="url(#clip0_201_299)">
<mask id="mask0_201_299" style="mask-type:luminance" maskUnits="userSpaceOnUse" x="0" y="0" width="40" height="40">
<path d="M0 40L40 40L40 0L0 0L0 40Z" fill="white"/>
</mask>
<g mask="url(#mask0_201_299)">
<path d="M26.1549 21.539H31.5395C32.1806 21.539 32.7256 21.7633 33.1744 22.212C33.6229 22.6608 33.8474 23.2056 33.8474 23.8469V24.6158C33.8474 26.3146 33.2464 27.7648 32.0443 28.9669C30.8423 30.1685 29.3919 30.7696 27.6932 30.7696H26.1549C25.7383 30.7696 25.3778 30.9219 25.0732 31.2263C24.7688 31.5308 24.6165 31.8912 24.6165 32.3079V35.3851C24.6165 35.8017 24.7688 36.1625 25.0732 36.4671C25.3777 36.7712 25.7382 36.9237 26.1549 36.9237H27.6932C29.36 36.9237 30.9503 36.5989 32.4649 35.9502C33.9793 35.301 35.2892 34.4235 36.3951 33.3176C37.501 32.2122 38.3782 30.9022 39.0273 29.3876C39.6763 27.8731 40.0009 26.2825 40.0009 24.6159V7.6932C40.0009 6.41047 39.5524 5.32131 38.6549 4.42352C37.7574 3.52625 36.6674 3.07764 35.3854 3.07764L26.1543 3.07765C24.8724 3.07765 23.7827 3.52625 22.8851 4.42352C21.9878 5.32131 21.5391 6.41047 21.5391 7.6932V16.9235C21.5391 18.206 21.9878 19.2952 22.8857 20.193C23.7829 21.0902 24.873 21.539 26.1549 21.539Z" fill="#FFC800"/>
<path d="M1.34529 20.193C2.24248 21.0902 3.33223 21.539 4.61445 21.539H9.99903C10.6398 21.539 11.1853 21.7633 11.6333 22.212C12.0823 22.6608 12.3064 23.2056 12.3064 23.8469V24.6158C12.3064 26.3146 11.7053 27.7648 10.5038 28.9669C9.30223 30.1685 7.85187 30.7696 6.15237 30.7696H4.61436C4.19768 30.7696 3.83698 30.9219 3.53261 31.2263C3.22841 31.5308 3.0756 31.8912 3.0756 32.3079V35.3851C3.0756 35.8017 3.22833 36.1625 3.53261 36.4671C3.8369 36.7712 4.19759 36.9237 4.61436 36.9237H6.15237C7.82013 36.9237 9.41 36.5989 10.9251 35.9502C12.4392 35.301 13.7487 34.4235 14.8547 33.3176C15.9606 32.2122 16.8382 30.9022 17.487 29.3876C18.1359 27.8731 18.4609 26.2825 18.4609 24.6159V7.6932C18.4609 6.41047 18.012 5.32131 17.1148 4.42352C16.2175 3.52625 15.1278 3.07764 13.8456 3.07764L4.61495 3.07765C3.33273 3.07765 2.24307 3.52625 1.34587 4.42352C0.448006 5.32131 -1.121e-07 6.41047 0 7.6932L8.069e-07 16.9235C-8.30043e-05 18.2061 0.448009 19.2952 1.34529 20.193Z" fill="#FFC800"/>
</g>
</g>
<defs>
<clipPath id="clip0_201_299">
<rect width="40" height="40" fill="white"/>
</clipPath>
</defs>
</svg>
